<?xml version="1.0" encoding="utf-8"?>
<!-- Svg Vector Icons : http://www.onlinewebfonts.com/icon -->
<!DOCTYPE svg PUBLIC "-//W3C//DTD SVG 1.1//EN" "http://www.w3.org/Graphics/SVG/1.1/DTD/svg11.dtd">
<svg version="1.1" xmlns="http://www.w3.org/2000/svg" xmlns:xlink="http://www.w3.org/1999/xlink" x="0px" y="0px" viewBox="0 0 1000 1000" enable-background="new 0 0 1000 1000" xml:space="preserve">
<metadata> Svg Vector Icons : http://www.onlinewebfonts.com/icon </metadata>
<g><path d="M500,10C229.4,10,10,229.4,10,500s219.4,490,490,490s490-219.4,490-490S770.6,10,500,10z M774.1,756.4c-2.7,19.3-6.3,30.9-10.6,34.8c-2.7,2.2-9.4,4.5-19.9,7.1c-10.6,2.5-23.6,4.9-39.1,7.4c-15.4,2.4-32.3,4.6-50.8,6.6c-18.4,2-37.1,3.7-56.2,5.4c-18.9,1.7-37.2,3-54.9,4.1c-15.9,1-30.2,1.6-42.7,1.7c-12.5-0.1-26.9-0.7-42.7-1.7c-17.6-1.1-36-2.5-54.9-4.1c-19-1.7-37.7-3.4-56.2-5.4c-18.4-2-35.4-4.1-50.8-6.6c-15.5-2.5-28.5-5-39.1-7.4c-10.5-2.5-17.1-4.9-19.9-7.1c-4.3-3.9-7.8-15.5-10.6-34.8c-2.6-19.3,12.1-75,23.2-83.8c11.1-8.8,24.2-16,39.4-21.5c15.2-5.6,30.8-10.4,46.7-14.5c16.1-4.1,30.3-10.4,42.7-18.6c9.8-6.7,17.2-12.6,22.3-18.2c5.2-5.5,8.9-11,11.4-16.6c2.5-5.5,3.7-11.3,3.7-17.3c0-6.1-0.3-12.9-0.9-20.7c-1.1-11-4.8-19.7-11.4-26.1c-6.5-6.3-13.5-12.5-21.2-18.6c-3.7-3.2-7.2-7.9-10.1-14c-3-6.1-5.6-12.2-7.7-18.2c-2.2-6.6-4.3-14-6.5-22.3c-3.3-1.1-6.6-2.7-9.8-4.9c-2.7-2.3-5.6-5.5-8.5-9.9c-3-4.4-5.9-10.5-8.5-18.2c-2.7-7.7-3.8-15-3.3-22c0.6-6.9,2-12.5,4.1-17c2.2-5.5,5.2-10.5,8.9-14.9c-0.5-17.6,0.3-25.4,2.4-43.6c2.2-15.5,5.6-21.5,10.2-38.3c4.6-16.8,11.8-32.3,21.6-46.7c8.6-13.2,18.4-23.9,29.2-32.2c10.9-8.2,22.1-14.7,33.4-19.4c11.4-4.7,22.7-7.8,34.1-9.5c9.9-1.5,19.4-2.3,28.5-2.5c9.1,0.2,18.6,1,28.5,2.5c11.4,1.7,22.7,4.8,34.1,9.5c11.4,4.7,22.5,11.2,33.4,19.4c10.8,8.3,20.6,19,29.2,32.2c9.8,14.4,17,30,21.6,46.7c4.6,16.9,8,22.8,10.2,38.3c2.2,18.2,2.9,26,2.4,43.6c3.7,4.4,6.8,9.4,8.9,14.9c2.2,4.4,3.5,10.1,4.1,17c0.5,7-0.6,14.2-3.3,22c-2.6,7.7-5.5,13.8-8.5,18.2c-2.9,4.4-5.8,7.6-8.5,9.9c-3.2,2.2-6.5,3.8-9.8,4.9c-2.2,8.3-4.3,15.8-6.5,22.3c-2.2,6.1-4.7,12.2-7.7,18.2c-2.9,6.1-6.4,10.8-10.1,14c-7.6,6.1-14.7,12.3-21.2,18.6c-6.6,6.4-10.3,15.1-11.4,26.1c-0.6,7.7-0.9,14.6-0.9,20.7c0,6.1,1.3,11.9,3.7,17.3c2.5,5.6,6.2,11.1,11.4,16.6c5.1,5.6,12.5,11.6,22.3,18.2c12.4,8.2,26.7,14.5,42.7,18.6c16,4.1,31.6,8.9,46.7,14.5c15.2,5.5,28.3,12.6,39.4,21.5C762.1,681.4,776.8,737.1,774.1,756.4z"/></g>
</svg>